<?xml version="1.0" encoding="UTF-8" standalone="no"?>
<svg width="200" height="200" viewBox="0 0 200 200" fill="none" xmlns="http://www.w3.org/2000/svg">
  <rect width="200" height="200" rx="12" fill="#F3F4F6" />
  
  <!-- Skills Web -->
  <circle cx="100" cy="100" r="70" fill="white" stroke="#E5E7EB" stroke-width="1" />
  <circle cx="100" cy="100" r="50" fill="white" stroke="#E5E7EB" stroke-width="1" />
  <circle cx="100" cy="100" r="30" fill="white" stroke="#E5E7EB" stroke-width="1" />
  
  <!-- Connecting Lines -->
  <line x1="100" y1="30" x2="100" y2="170" stroke="#E5E7EB" stroke-width="1" />
  <line x1="30" y1="100" x2="170" y2="100" stroke="#E5E7EB" stroke-width="1" />
  <line x1="50" y1="50" x2="150" y2="150" stroke="#E5E7EB" stroke-width="1" />
  <line x1="50" y1="150" x2="150" y2="50" stroke="#E5E7EB" stroke-width="1" />
  
  <!-- Skill Nodes -->
  <circle cx="100" cy="30" r="10" fill="#4B5563" />
  <text x="90" y="33" font-family="Arial" font-size="6" fill="white">Tech</text>
  
  <circle cx="150" cy="50" r="8" fill="#6B7280" />
  <text x="142" y="52" font-family="Arial" font-size="5" fill="white">Design</text>
  
  <circle cx="170" cy="100" r="9" fill="#9CA3AF" />
  <text x="162" y="102" font-family="Arial" font-size="5" fill="white">Soft</text>
  
  <circle cx="150" cy="150" r="7" fill="#D1D5DB" />
  <text x="142" y="152" font-family="Arial" font-size="5" fill="#4B5563">Finance</text>
  
  <circle cx="100" cy="170" r="9" fill="#E5E7EB" />
  <text x="92" y="172" font-family="Arial" font-size="5" fill="#4B5563">Business</text>
  
  <circle cx="50" cy="150" r="8" fill="#F3F4F6" stroke="#6B7280" />
  <text x="42" y="152" font-family="Arial" font-size="5" fill="#4B5563">Health</text>
  
  <circle cx="30" cy="100" r="7" fill="#F9FAFB" stroke="#6B7280" />
  <text x="22" y="102" font-family="Arial" font-size="5" fill="#4B5563">Social</text>
  
  <circle cx="50" cy="50" r="9" fill="#F3F4F6" stroke="#6B7280" />
  <text x="42" y="52" font-family="Arial" font-size="5" fill="#4B5563">Creative</text>
  
  <!-- Central Node -->
  <circle cx="100" cy="100" r="12" fill="#6B7280" />
  <text x="90" y="103" font-family="Arial" font-size="7" fill="white">Skills</text>
</svg>