<?xml version="1.0" encoding="UTF-8" standalone="no"?>
<svg width="400" height="300" viewBox="0 0 400 300" fill="none" xmlns="http://www.w3.org/2000/svg">
  <rect width="400" height="300" rx="12" fill="#F3F4F6" />
  
  <!-- Background Grid -->
  <g opacity="0.1">
    <line x1="0" y1="50" x2="400" y2="50" stroke="#6B7280" stroke-width="1" />
    <line x1="0" y1="100" x2="400" y2="100" stroke="#6B7280" stroke-width="1" />
    <line x1="0" y1="150" x2="400" y2="150" stroke="#6B7280" stroke-width="1" />
    <line x1="0" y1="200" x2="400" y2="200" stroke="#6B7280" stroke-width="1" />
    <line x1="0" y1="250" x2="400" y2="250" stroke="#6B7280" stroke-width="1" />
    
    <line x1="50" y1="0" x2="50" y2="300" stroke="#6B7280" stroke-width="1" />
    <line x1="100" y1="0" x2="100" y2="300" stroke="#6B7280" stroke-width="1" />
    <line x1="150" y1="0" x2="150" y2="300" stroke="#6B7280" stroke-width="1" />
    <line x1="200" y1="0" x2="200" y2="300" stroke="#6B7280" stroke-width="1" />
    <line x1="250" y1="0" x2="250" y2="300" stroke="#6B7280" stroke-width="1" />
    <line x1="300" y1="0" x2="300" y2="300" stroke="#6B7280" stroke-width="1" />
    <line x1="350" y1="0" x2="350" y2="300" stroke="#6B7280" stroke-width="1" />
  </g>
  
  <!-- Person Silhouette -->
  <circle cx="150" cy="100" r="30" fill="#4B5563" />
  <rect x="120" y="130" width="60" height="80" rx="10" fill="#4B5563" />
  
  <!-- AI Brain/Circuit -->
  <circle cx="250" cy="100" r="30" fill="#9CA3AF" />
  <g opacity="0.8">
    <line x1="235" y1="85" x2="265" y2="85" stroke="#F3F4F6" stroke-width="2" />
    <line x1="235" y1="95" x2="265" y2="95" stroke="#F3F4F6" stroke-width="2" />
    <line x1="235" y1="105" x2="265" y2="105" stroke="#F3F4F6" stroke-width="2" />
    <line x1="235" y1="115" x2="265" y2="115" stroke="#F3F4F6" stroke-width="2" />
    
    <circle cx="235" cy="85" r="2" fill="#F3F4F6" />
    <circle cx="265" cy="85" r="2" fill="#F3F4F6" />
    <circle cx="235" cy="95" r="2" fill="#F3F4F6" />
    <circle cx="265" cy="95" r="2" fill="#F3F4F6" />
    <circle cx="235" cy="105" r="2" fill="#F3F4F6" />
    <circle cx="265" cy="105" r="2" fill="#F3F4F6" />
    <circle cx="235" cy="115" r="2" fill="#F3F4F6" />
    <circle cx="265" cy="115" r="2" fill="#F3F4F6" />
  </g>
  
  <!-- Connection Line -->
  <line x1="180" y1="100" x2="220" y2="100" stroke="#6B7280" stroke-width="2" stroke-dasharray="4 4" />
  
  <!-- Future Graph -->
  <path d="M100 220 L150 200 L200 210 L250 180 L300 160" stroke="#4B5563" stroke-width="3" fill="none" />
  <circle cx="100" cy="220" r="4" fill="#4B5563" />
  <circle cx="150" cy="200" r="4" fill="#4B5563" />
  <circle cx="200" cy="210" r="4" fill="#4B5563" />
  <circle cx="250" cy="180" r="4" fill="#4B5563" />
  <circle cx="300" cy="160" r="4" fill="#4B5563" />
  
  <!-- Labels -->
  <rect x="120" y="40" width="60" height="20" rx="4" fill="white" stroke="#4B5563" />
  <text x="130" y="54" font-family="Arial" font-size="10" fill="#4B5563">Person</text>
  
  <rect x="220" y="40" width="60" height="20" rx="4" fill="white" stroke="#9CA3AF" />
  <text x="235" y="54" font-family="Arial" font-size="10" fill="#6B7280">AI</text>
  
  <rect x="170" y="240" width="60" height="20" rx="4" fill="white" stroke="#4B5563" />
  <text x="180" y="254" font-family="Arial" font-size="10" fill="#4B5563">Future</text>
</svg>