<?xml version="1.0" encoding="UTF-8" standalone="no"?>
<svg width="1440" height="600" viewBox="0 0 1440 600" fill="none" xmlns="http://www.w3.org/2000/svg">
  <g opacity="0.1">
    <path d="M-35.1794 365.458C-35.1794 365.458 122.329 114.565 436.53 252.116C750.731 389.667 1101.24 321.884 1142.43 186.999C1183.61 52.1143 1384.99 22.6584 1485.17 73.2148" stroke="#6B7280" stroke-width="2" stroke-linecap="round" stroke-dasharray="8 12"/>
    <path d="M-35.1794 416.526C-35.1794 416.526 122.329 165.633 436.53 303.184C750.731 440.735 1101.24 372.952 1142.43 238.067C1183.61 103.182 1384.99 73.7266 1485.17 124.283" stroke="#6B7280" stroke-width="2" stroke-linecap="round" stroke-dasharray="8 12"/>
    <path d="M-35.1794 472.048C-35.1794 472.048 122.329 221.155 436.53 358.706C750.731 496.257 1101.24 428.474 1142.43 293.589C1183.61 158.704 1384.99 129.249 1485.17 179.805" stroke="#6B7280" stroke-width="2" stroke-linecap="round" stroke-dasharray="8 12"/>
    <path d="M-35.1794 527.57C-35.1794 527.57 122.329 276.677 436.53 414.228C750.731 551.779 1101.24 483.996 1142.43 349.111C1183.61 214.227 1384.99 184.771 1485.17 235.327" stroke="#6B7280" stroke-width="2" stroke-linecap="round" stroke-dasharray="8 12"/>
    <path d="M-35.1794 583.092C-35.1794 583.092 122.329 332.199 436.53 469.75C750.731 607.302 1101.24 539.518 1142.43 404.633C1183.61 269.749 1384.99 240.293 1485.17 290.849" stroke="#6B7280" stroke-width="2" stroke-linecap="round" stroke-dasharray="8 12"/>
    <path d="M-35.1794 638.614C-35.1794 638.614 122.329 387.721 436.53 525.272C750.731 662.823 1101.24 595.04 1142.43 460.155C1183.61 325.271 1384.99 295.815 1485.17 346.371" stroke="#6B7280" stroke-width="2" stroke-linecap="round" stroke-dasharray="8 12"/>
    <path d="M-35.1794 694.136C-35.1794 694.136 122.329 443.243 436.53 580.794C750.731 718.345 1101.24 650.562 1142.43 515.677C1183.61 380.793 1384.99 351.337 1485.17 401.893" stroke="#6B7280" stroke-width="2" stroke-linecap="round" stroke-dasharray="8 12"/>
    <path d="M-35.1794 749.658C-35.1794 749.658 122.329 498.765 436.53 636.316C750.731 773.867 1101.24 706.084 1142.43 571.199C1183.61 436.315 1384.99 406.859 1485.17 457.415" stroke="#6B7280" stroke-width="2" stroke-linecap="round" stroke-dasharray="8 12"/>
    <path d="M-35.1794 805.18C-35.1794 805.18 122.329 554.287 436.53 691.838C750.731 829.389 1101.24 761.606 1142.43 626.721C1183.61 491.837 1384.99 462.381 1485.17 512.937" stroke="#6B7280" stroke-width="2" stroke-linecap="round" stroke-dasharray="8 12"/>
    <circle cx="250" cy="150" r="20" fill="#6B7280" opacity="0.1"/>
    <circle cx="350" cy="350" r="10" fill="#6B7280" opacity="0.1"/>
    <circle cx="550" cy="250" r="15" fill="#6B7280" opacity="0.1"/>
    <circle cx="750" cy="150" r="12" fill="#6B7280" opacity="0.1"/>
    <circle cx="950" cy="350" r="18" fill="#6B7280" opacity="0.1"/>
    <circle cx="1150" cy="250" r="8" fill="#6B7280" opacity="0.1"/>
    <circle cx="1350" cy="150" r="14" fill="#6B7280" opacity="0.1"/>
  </g>
</svg>